<mxfile host="app.diagrams.net" modified="2023-06-13T09:50:40.212Z" agent="Mozilla/5.0 (Windows NT 10.0; Win64; x64) AppleWebKit/537.36 (KHTML, like Gecko) Chrome/112.0.0.0 YaBrowser/23.5.1.721 Yowser/2.5 Safari/537.36" etag="tjH1s99gQsAFUIZhxym8" version="21.3.8" type="device" pages="2">
  <diagram name="Страница 1" id="CHs7MfvUYMYPicm4pyow">
    <mxGraphModel dx="1888" dy="838" grid="1" gridSize="10" guides="1" tooltips="1" connect="1" arrows="1" fold="1" page="1" pageScale="1" pageWidth="2339" pageHeight="3300" math="0" shadow="0">
      <root>
        <mxCell id="0" />
        <mxCell id="1" parent="0" />
        <mxCell id="kQDP2SYijDBR-i54rJBT-1" value="&lt;font style=&quot;font-size: 11px;&quot;&gt;Начало&lt;br&gt;оформления&lt;br&gt;договора&lt;/font&gt;" style="strokeWidth=2;html=1;shape=mxgraph.flowchart.terminator;whiteSpace=wrap;" parent="1" vertex="1">
          <mxGeometry x="590" y="40" width="120" height="60" as="geometry" />
        </mxCell>
        <mxCell id="kQDP2SYijDBR-i54rJBT-2" value="&lt;font style=&quot;font-size: 11px;&quot;&gt;Обработка персональных&lt;br&gt;данных клиента&lt;/font&gt;" style="rounded=0;whiteSpace=wrap;html=1;" parent="1" vertex="1">
          <mxGeometry x="590" y="160" width="120" height="60" as="geometry" />
        </mxCell>
        <mxCell id="kQDP2SYijDBR-i54rJBT-3" value="" style="endArrow=none;html=1;rounded=0;entryX=0.5;entryY=1;entryDx=0;entryDy=0;entryPerimeter=0;exitX=0.5;exitY=0;exitDx=0;exitDy=0;" parent="1" source="kQDP2SYijDBR-i54rJBT-2" target="kQDP2SYijDBR-i54rJBT-1" edge="1">
          <mxGeometry width="50" height="50" relative="1" as="geometry">
            <mxPoint x="770" y="310" as="sourcePoint" />
            <mxPoint x="820" y="260" as="targetPoint" />
          </mxGeometry>
        </mxCell>
        <mxCell id="kQDP2SYijDBR-i54rJBT-4" value="&lt;font style=&quot;font-size: 11px;&quot;&gt;Вызов отображения данных клиента в ЛК&lt;/font&gt;" style="html=1;strokeWidth=2;shape=manualInput;whiteSpace=wrap;rounded=1;size=26;arcSize=11;" parent="1" vertex="1">
          <mxGeometry x="745" y="40" width="130" height="80" as="geometry" />
        </mxCell>
        <mxCell id="kQDP2SYijDBR-i54rJBT-5" value="" style="endArrow=none;html=1;rounded=0;exitX=1;exitY=0.5;exitDx=0;exitDy=0;entryX=1;entryY=0.5;entryDx=0;entryDy=0;" parent="1" source="kQDP2SYijDBR-i54rJBT-2" target="kQDP2SYijDBR-i54rJBT-4" edge="1">
          <mxGeometry width="50" height="50" relative="1" as="geometry">
            <mxPoint x="770" y="280" as="sourcePoint" />
            <mxPoint x="820" y="230" as="targetPoint" />
            <Array as="points">
              <mxPoint x="910" y="190" />
              <mxPoint x="910" y="80" />
            </Array>
          </mxGeometry>
        </mxCell>
        <mxCell id="kQDP2SYijDBR-i54rJBT-23" value="&lt;font style=&quot;font-size: 11px;&quot;&gt;Отображение&lt;br&gt;страницы&lt;br&gt;оформления&lt;/font&gt;" style="strokeWidth=2;html=1;shape=mxgraph.flowchart.display;whiteSpace=wrap;" parent="1" vertex="1">
          <mxGeometry x="335" y="160" width="130" height="60" as="geometry" />
        </mxCell>
        <mxCell id="kQDP2SYijDBR-i54rJBT-24" value="" style="endArrow=classic;html=1;rounded=0;entryX=1;entryY=0.5;entryDx=0;entryDy=0;entryPerimeter=0;exitX=0;exitY=0.5;exitDx=0;exitDy=0;" parent="1" source="kQDP2SYijDBR-i54rJBT-2" target="kQDP2SYijDBR-i54rJBT-23" edge="1">
          <mxGeometry width="50" height="50" relative="1" as="geometry">
            <mxPoint x="590" y="250" as="sourcePoint" />
            <mxPoint x="760" y="200" as="targetPoint" />
          </mxGeometry>
        </mxCell>
        <mxCell id="kQDP2SYijDBR-i54rJBT-25" value="&lt;font style=&quot;font-size: 11px;&quot;&gt;Персональные&lt;br&gt;данные&lt;/font&gt;" style="strokeWidth=2;html=1;shape=mxgraph.flowchart.database;whiteSpace=wrap;" parent="1" vertex="1">
          <mxGeometry x="950" y="150" width="100" height="110" as="geometry" />
        </mxCell>
        <mxCell id="kQDP2SYijDBR-i54rJBT-26" value="" style="endArrow=classic;html=1;rounded=0;entryX=1;entryY=0.75;entryDx=0;entryDy=0;exitX=0;exitY=0.5;exitDx=0;exitDy=0;exitPerimeter=0;" parent="1" source="kQDP2SYijDBR-i54rJBT-25" target="kQDP2SYijDBR-i54rJBT-2" edge="1">
          <mxGeometry width="50" height="50" relative="1" as="geometry">
            <mxPoint x="710" y="330" as="sourcePoint" />
            <mxPoint x="760" y="280" as="targetPoint" />
            <Array as="points" />
          </mxGeometry>
        </mxCell>
        <mxCell id="kQDP2SYijDBR-i54rJBT-29" value="&lt;font style=&quot;font-size: 11px;&quot;&gt;Запрос входных&lt;br&gt;условий договора&lt;/font&gt;" style="html=1;strokeWidth=2;shape=manualInput;whiteSpace=wrap;rounded=1;size=26;arcSize=11;" parent="1" vertex="1">
          <mxGeometry x="335" y="270" width="130" height="80" as="geometry" />
        </mxCell>
        <mxCell id="kQDP2SYijDBR-i54rJBT-35" value="&lt;font style=&quot;font-size: 11px;&quot;&gt;Шифр клиента,&lt;br&gt;шифр договора&lt;/font&gt;" style="strokeWidth=2;html=1;shape=mxgraph.flowchart.annotation_1;align=left;pointerEvents=1;" parent="1" vertex="1">
          <mxGeometry x="485" y="210" width="40" height="70" as="geometry" />
        </mxCell>
        <mxCell id="kQDP2SYijDBR-i54rJBT-36" value="" style="endArrow=none;html=1;rounded=0;entryX=0;entryY=0.5;entryDx=0;entryDy=0;entryPerimeter=0;exitX=1;exitY=0.25;exitDx=0;exitDy=0;" parent="1" source="kQDP2SYijDBR-i54rJBT-29" target="kQDP2SYijDBR-i54rJBT-35" edge="1">
          <mxGeometry width="50" height="50" relative="1" as="geometry">
            <mxPoint x="730" y="440" as="sourcePoint" />
            <mxPoint x="780" y="390" as="targetPoint" />
          </mxGeometry>
        </mxCell>
        <mxCell id="kQDP2SYijDBR-i54rJBT-38" value="&lt;font style=&quot;font-size: 11px;&quot;&gt;Файл требований&lt;br&gt;клиента&lt;/font&gt;" style="strokeWidth=2;html=1;shape=mxgraph.flowchart.database;whiteSpace=wrap;" parent="1" vertex="1">
          <mxGeometry x="950" y="270" width="100" height="110" as="geometry" />
        </mxCell>
        <mxCell id="kQDP2SYijDBR-i54rJBT-40" value="&lt;font style=&quot;font-size: 11px;&quot;&gt;Файл условий, включённых в договор&lt;/font&gt;" style="strokeWidth=2;html=1;shape=mxgraph.flowchart.database;whiteSpace=wrap;" parent="1" vertex="1">
          <mxGeometry x="950" y="390" width="100" height="110" as="geometry" />
        </mxCell>
        <mxCell id="kQDP2SYijDBR-i54rJBT-42" value="&lt;font style=&quot;font-size: 11px;&quot;&gt;Принять&lt;br&gt;договор или&lt;br&gt;нет ?&lt;/font&gt;" style="strokeWidth=2;html=1;shape=mxgraph.flowchart.decision;whiteSpace=wrap;" parent="1" vertex="1">
          <mxGeometry x="590" y="505" width="120" height="150" as="geometry" />
        </mxCell>
        <mxCell id="kQDP2SYijDBR-i54rJBT-43" value="" style="endArrow=none;html=1;rounded=0;entryX=0.5;entryY=1;entryDx=0;entryDy=0;exitX=0.5;exitY=0;exitDx=0;exitDy=0;exitPerimeter=0;" parent="1" source="kQDP2SYijDBR-i54rJBT-42" target="Hya3f9Q3qtqqDXyEk8Op-2" edge="1">
          <mxGeometry width="50" height="50" relative="1" as="geometry">
            <mxPoint x="630" y="650" as="sourcePoint" />
            <mxPoint x="650" y="490" as="targetPoint" />
          </mxGeometry>
        </mxCell>
        <mxCell id="kQDP2SYijDBR-i54rJBT-44" value="&lt;font style=&quot;font-size: 11px;&quot;&gt;Обработка внесения договора в БД&lt;/font&gt;" style="rounded=0;whiteSpace=wrap;html=1;" parent="1" vertex="1">
          <mxGeometry x="590" y="705" width="120" height="60" as="geometry" />
        </mxCell>
        <mxCell id="kQDP2SYijDBR-i54rJBT-45" value="" style="endArrow=none;html=1;rounded=0;entryX=0.5;entryY=1;entryDx=0;entryDy=0;entryPerimeter=0;exitX=0.5;exitY=0;exitDx=0;exitDy=0;" parent="1" source="kQDP2SYijDBR-i54rJBT-44" target="kQDP2SYijDBR-i54rJBT-42" edge="1">
          <mxGeometry width="50" height="50" relative="1" as="geometry">
            <mxPoint x="630" y="850" as="sourcePoint" />
            <mxPoint x="680" y="800" as="targetPoint" />
          </mxGeometry>
        </mxCell>
        <mxCell id="kQDP2SYijDBR-i54rJBT-46" value="&lt;font style=&quot;font-size: 11px;&quot;&gt;Временный&lt;br&gt;файл клиента&lt;/font&gt;" style="strokeWidth=2;html=1;shape=mxgraph.flowchart.sequential_data;whiteSpace=wrap;" parent="1" vertex="1">
          <mxGeometry x="830" y="480" width="90" height="70" as="geometry" />
        </mxCell>
        <mxCell id="kQDP2SYijDBR-i54rJBT-47" value="" style="endArrow=none;html=1;rounded=0;entryX=0.75;entryY=1;entryDx=0;entryDy=0;exitX=0;exitY=0.5;exitDx=0;exitDy=0;exitPerimeter=0;" parent="1" source="kQDP2SYijDBR-i54rJBT-46" target="Hya3f9Q3qtqqDXyEk8Op-2" edge="1">
          <mxGeometry width="50" height="50" relative="1" as="geometry">
            <mxPoint x="630" y="630" as="sourcePoint" />
            <mxPoint x="690" y="490" as="targetPoint" />
            <Array as="points">
              <mxPoint x="680" y="515" />
            </Array>
          </mxGeometry>
        </mxCell>
        <mxCell id="kQDP2SYijDBR-i54rJBT-49" value="&lt;font style=&quot;font-size: 11px;&quot;&gt;Оформленный договор&lt;/font&gt;" style="text;html=1;strokeColor=none;fillColor=none;align=center;verticalAlign=middle;whiteSpace=wrap;rounded=0;" parent="1" vertex="1">
          <mxGeometry x="730" y="650" width="160" height="30" as="geometry" />
        </mxCell>
        <mxCell id="kQDP2SYijDBR-i54rJBT-50" value="&lt;font style=&quot;font-size: 11px;&quot;&gt;Проверить&lt;br&gt;актуальность&lt;br&gt;договора&lt;/font&gt;" style="strokeWidth=2;html=1;shape=mxgraph.flowchart.display;whiteSpace=wrap;" parent="1" vertex="1">
          <mxGeometry x="335" y="705" width="130" height="60" as="geometry" />
        </mxCell>
        <mxCell id="kQDP2SYijDBR-i54rJBT-51" value="" style="endArrow=classic;html=1;rounded=0;exitX=0;exitY=0.5;exitDx=0;exitDy=0;entryX=1;entryY=0.5;entryDx=0;entryDy=0;entryPerimeter=0;" parent="1" source="kQDP2SYijDBR-i54rJBT-44" target="kQDP2SYijDBR-i54rJBT-50" edge="1">
          <mxGeometry width="50" height="50" relative="1" as="geometry">
            <mxPoint x="630" y="920" as="sourcePoint" />
            <mxPoint x="680" y="870" as="targetPoint" />
            <Array as="points" />
          </mxGeometry>
        </mxCell>
        <mxCell id="kQDP2SYijDBR-i54rJBT-52" value="&lt;font style=&quot;font-size: 11px;&quot;&gt;Файл договора с условиями&lt;/font&gt;" style="strokeWidth=2;html=1;shape=mxgraph.flowchart.database;whiteSpace=wrap;" parent="1" vertex="1">
          <mxGeometry x="940" y="680" width="100" height="110" as="geometry" />
        </mxCell>
        <mxCell id="kQDP2SYijDBR-i54rJBT-53" value="" style="endArrow=classic;startArrow=classic;html=1;rounded=0;entryX=0;entryY=0.5;entryDx=0;entryDy=0;entryPerimeter=0;exitX=1;exitY=0.5;exitDx=0;exitDy=0;" parent="1" source="kQDP2SYijDBR-i54rJBT-44" target="kQDP2SYijDBR-i54rJBT-52" edge="1">
          <mxGeometry width="50" height="50" relative="1" as="geometry">
            <mxPoint x="630" y="920" as="sourcePoint" />
            <mxPoint x="680" y="870" as="targetPoint" />
          </mxGeometry>
        </mxCell>
        <mxCell id="kQDP2SYijDBR-i54rJBT-54" value="&lt;font style=&quot;font-size: 11px;&quot;&gt;Внести и специфицировать договор&lt;/font&gt;" style="html=1;strokeWidth=2;shape=manualInput;whiteSpace=wrap;rounded=1;size=26;arcSize=11;" parent="1" vertex="1">
          <mxGeometry x="790" y="770" width="130" height="80" as="geometry" />
        </mxCell>
        <mxCell id="kQDP2SYijDBR-i54rJBT-56" value="&lt;font style=&quot;font-size: 11px;&quot;&gt;Конец работы по обработке договора&lt;/font&gt;" style="strokeWidth=2;html=1;shape=mxgraph.flowchart.terminator;whiteSpace=wrap;" parent="1" vertex="1">
          <mxGeometry x="590" y="860" width="120" height="60" as="geometry" />
        </mxCell>
        <mxCell id="kQDP2SYijDBR-i54rJBT-58" value="" style="endArrow=none;html=1;rounded=0;exitX=0.5;exitY=0;exitDx=0;exitDy=0;exitPerimeter=0;entryX=0.5;entryY=1;entryDx=0;entryDy=0;" parent="1" source="kQDP2SYijDBR-i54rJBT-56" target="kQDP2SYijDBR-i54rJBT-44" edge="1">
          <mxGeometry width="50" height="50" relative="1" as="geometry">
            <mxPoint x="620" y="950" as="sourcePoint" />
            <mxPoint x="670" y="900" as="targetPoint" />
          </mxGeometry>
        </mxCell>
        <mxCell id="kQDP2SYijDBR-i54rJBT-60" value="" style="endArrow=none;html=1;rounded=0;entryX=0.75;entryY=1;entryDx=0;entryDy=0;exitX=0;exitY=0.75;exitDx=0;exitDy=0;" parent="1" source="kQDP2SYijDBR-i54rJBT-54" target="kQDP2SYijDBR-i54rJBT-44" edge="1">
          <mxGeometry width="50" height="50" relative="1" as="geometry">
            <mxPoint x="620" y="950" as="sourcePoint" />
            <mxPoint x="670" y="900" as="targetPoint" />
            <Array as="points">
              <mxPoint x="680" y="830" />
            </Array>
          </mxGeometry>
        </mxCell>
        <mxCell id="kQDP2SYijDBR-i54rJBT-62" value="" style="endArrow=classic;html=1;rounded=0;entryX=0.75;entryY=0;entryDx=0;entryDy=0;exitX=0.5;exitY=1;exitDx=0;exitDy=0;exitPerimeter=0;" parent="1" source="kQDP2SYijDBR-i54rJBT-46" target="kQDP2SYijDBR-i54rJBT-44" edge="1">
          <mxGeometry width="50" height="50" relative="1" as="geometry">
            <mxPoint x="830" y="700" as="sourcePoint" />
            <mxPoint x="880" y="650" as="targetPoint" />
            <Array as="points">
              <mxPoint x="875" y="680" />
              <mxPoint x="680" y="680" />
            </Array>
          </mxGeometry>
        </mxCell>
        <mxCell id="Hya3f9Q3qtqqDXyEk8Op-1" value="&lt;font style=&quot;font-size: 11px;&quot;&gt;Контроль данных и подписаний клиентов&lt;/font&gt;" style="rounded=0;whiteSpace=wrap;html=1;" parent="1" vertex="1">
          <mxGeometry x="590" y="280" width="120" height="60" as="geometry" />
        </mxCell>
        <mxCell id="Hya3f9Q3qtqqDXyEk8Op-2" value="&lt;font style=&quot;font-size: 11px;&quot;&gt;Запрос заполненной формы оформления договора&lt;/font&gt;" style="rounded=0;whiteSpace=wrap;html=1;" parent="1" vertex="1">
          <mxGeometry x="590" y="400" width="120" height="60" as="geometry" />
        </mxCell>
        <mxCell id="Hya3f9Q3qtqqDXyEk8Op-3" value="" style="endArrow=none;html=1;rounded=0;entryX=0.5;entryY=1;entryDx=0;entryDy=0;exitX=0.5;exitY=0;exitDx=0;exitDy=0;" parent="1" source="Hya3f9Q3qtqqDXyEk8Op-1" target="kQDP2SYijDBR-i54rJBT-2" edge="1">
          <mxGeometry width="50" height="50" relative="1" as="geometry">
            <mxPoint x="760" y="410" as="sourcePoint" />
            <mxPoint x="810" y="360" as="targetPoint" />
          </mxGeometry>
        </mxCell>
        <mxCell id="Hya3f9Q3qtqqDXyEk8Op-4" value="" style="endArrow=none;html=1;rounded=0;entryX=0.5;entryY=1;entryDx=0;entryDy=0;exitX=0.5;exitY=0;exitDx=0;exitDy=0;" parent="1" source="Hya3f9Q3qtqqDXyEk8Op-2" target="Hya3f9Q3qtqqDXyEk8Op-1" edge="1">
          <mxGeometry width="50" height="50" relative="1" as="geometry">
            <mxPoint x="760" y="520" as="sourcePoint" />
            <mxPoint x="810" y="470" as="targetPoint" />
          </mxGeometry>
        </mxCell>
        <mxCell id="Hya3f9Q3qtqqDXyEk8Op-5" value="" style="endArrow=classic;html=1;rounded=0;entryX=1;entryY=0.5;entryDx=0;entryDy=0;exitX=0;exitY=0.5;exitDx=0;exitDy=0;exitPerimeter=0;" parent="1" source="kQDP2SYijDBR-i54rJBT-38" target="Hya3f9Q3qtqqDXyEk8Op-1" edge="1">
          <mxGeometry width="50" height="50" relative="1" as="geometry">
            <mxPoint x="760" y="410" as="sourcePoint" />
            <mxPoint x="810" y="360" as="targetPoint" />
            <Array as="points">
              <mxPoint x="920" y="325" />
              <mxPoint x="920" y="310" />
            </Array>
          </mxGeometry>
        </mxCell>
        <mxCell id="Hya3f9Q3qtqqDXyEk8Op-6" value="" style="endArrow=none;html=1;rounded=0;exitX=1;exitY=0.5;exitDx=0;exitDy=0;entryX=0;entryY=0.5;entryDx=0;entryDy=0;" parent="1" source="kQDP2SYijDBR-i54rJBT-29" target="Hya3f9Q3qtqqDXyEk8Op-1" edge="1">
          <mxGeometry width="50" height="50" relative="1" as="geometry">
            <mxPoint x="760" y="290" as="sourcePoint" />
            <mxPoint x="810" y="240" as="targetPoint" />
          </mxGeometry>
        </mxCell>
        <mxCell id="Hya3f9Q3qtqqDXyEk8Op-7" value="" style="endArrow=classic;html=1;rounded=0;entryX=1;entryY=0.5;entryDx=0;entryDy=0;exitX=0;exitY=0.5;exitDx=0;exitDy=0;exitPerimeter=0;" parent="1" source="kQDP2SYijDBR-i54rJBT-40" target="Hya3f9Q3qtqqDXyEk8Op-2" edge="1">
          <mxGeometry width="50" height="50" relative="1" as="geometry">
            <mxPoint x="760" y="520" as="sourcePoint" />
            <mxPoint x="810" y="470" as="targetPoint" />
            <Array as="points">
              <mxPoint x="920" y="445" />
              <mxPoint x="920" y="430" />
            </Array>
          </mxGeometry>
        </mxCell>
        <mxCell id="Hya3f9Q3qtqqDXyEk8Op-8" value="&lt;font style=&quot;font-size: 11px;&quot;&gt;Вернуться в&lt;br&gt;начало или&lt;br&gt;закончить&lt;br&gt;обработку&lt;br&gt;договора ?&lt;/font&gt;" style="strokeWidth=2;html=1;shape=mxgraph.flowchart.decision;whiteSpace=wrap;" parent="1" vertex="1">
          <mxGeometry x="220" y="600" width="120" height="150" as="geometry" />
        </mxCell>
        <mxCell id="Hya3f9Q3qtqqDXyEk8Op-9" value="" style="endArrow=none;html=1;rounded=0;entryX=0;entryY=0.5;entryDx=0;entryDy=0;entryPerimeter=0;exitX=0.5;exitY=0;exitDx=0;exitDy=0;exitPerimeter=0;" parent="1" source="Hya3f9Q3qtqqDXyEk8Op-8" target="kQDP2SYijDBR-i54rJBT-42" edge="1">
          <mxGeometry width="50" height="50" relative="1" as="geometry">
            <mxPoint x="760" y="750" as="sourcePoint" />
            <mxPoint x="810" y="700" as="targetPoint" />
            <Array as="points">
              <mxPoint x="280" y="580" />
            </Array>
          </mxGeometry>
        </mxCell>
        <mxCell id="Hya3f9Q3qtqqDXyEk8Op-10" value="" style="endArrow=classic;html=1;rounded=0;exitX=0.5;exitY=1;exitDx=0;exitDy=0;exitPerimeter=0;" parent="1" source="Hya3f9Q3qtqqDXyEk8Op-8" edge="1">
          <mxGeometry width="50" height="50" relative="1" as="geometry">
            <mxPoint x="760" y="860" as="sourcePoint" />
            <mxPoint x="650" y="830" as="targetPoint" />
            <Array as="points">
              <mxPoint x="280" y="830" />
            </Array>
          </mxGeometry>
        </mxCell>
        <mxCell id="Hya3f9Q3qtqqDXyEk8Op-11" value="" style="endArrow=classic;html=1;rounded=0;exitX=0;exitY=0.5;exitDx=0;exitDy=0;exitPerimeter=0;" parent="1" source="Hya3f9Q3qtqqDXyEk8Op-8" edge="1">
          <mxGeometry width="50" height="50" relative="1" as="geometry">
            <mxPoint x="760" y="520" as="sourcePoint" />
            <mxPoint x="650" y="120" as="targetPoint" />
            <Array as="points">
              <mxPoint x="200" y="675" />
              <mxPoint x="200" y="400" />
              <mxPoint x="200" y="120" />
            </Array>
          </mxGeometry>
        </mxCell>
        <mxCell id="Hya3f9Q3qtqqDXyEk8Op-12" value="Договор не принят" style="text;html=1;strokeColor=none;fillColor=none;align=center;verticalAlign=middle;whiteSpace=wrap;rounded=0;" parent="1" vertex="1">
          <mxGeometry x="410" y="550" width="120" height="30" as="geometry" />
        </mxCell>
        <mxCell id="Hya3f9Q3qtqqDXyEk8Op-13" value="Повторное оформление договора" style="text;html=1;strokeColor=none;fillColor=none;align=center;verticalAlign=middle;whiteSpace=wrap;rounded=0;" parent="1" vertex="1">
          <mxGeometry x="310" y="90" width="230" height="30" as="geometry" />
        </mxCell>
      </root>
    </mxGraphModel>
  </diagram>
  <diagram id="N-g31kQTS54UBzfYV_v-" name="Страница 2">
    <mxGraphModel dx="1716" dy="762" grid="1" gridSize="10" guides="1" tooltips="1" connect="1" arrows="1" fold="1" page="1" pageScale="1" pageWidth="2339" pageHeight="3300" math="0" shadow="0">
      <root>
        <mxCell id="0" />
        <mxCell id="1" parent="0" />
        <mxCell id="6mtiyW2INxsurelcDL0--1" value="Начало" style="rounded=1;whiteSpace=wrap;html=1;" vertex="1" parent="1">
          <mxGeometry x="400" y="30" width="120" height="60" as="geometry" />
        </mxCell>
        <mxCell id="6mtiyW2INxsurelcDL0--2" value="Переход по HTTP-GET запросу на account/login" style="rounded=0;whiteSpace=wrap;html=1;" vertex="1" parent="1">
          <mxGeometry x="400" y="140" width="120" height="60" as="geometry" />
        </mxCell>
        <mxCell id="6mtiyW2INxsurelcDL0--3" value="Ввод (повтор ввода) данных на форму авторизации" style="rounded=0;whiteSpace=wrap;html=1;" vertex="1" parent="1">
          <mxGeometry x="400" y="250" width="120" height="60" as="geometry" />
        </mxCell>
        <mxCell id="6mtiyW2INxsurelcDL0--4" value="Нажатие кнопки Войти (валидация данных)&amp;nbsp;" style="rounded=0;whiteSpace=wrap;html=1;" vertex="1" parent="1">
          <mxGeometry x="400" y="360" width="120" height="60" as="geometry" />
        </mxCell>
        <mxCell id="6mtiyW2INxsurelcDL0--5" value="Валидация&lt;br&gt;пройдена ?" style="rhombus;whiteSpace=wrap;html=1;" vertex="1" parent="1">
          <mxGeometry x="400" y="470" width="120" height="80" as="geometry" />
        </mxCell>
        <mxCell id="6mtiyW2INxsurelcDL0--6" value="" style="endArrow=classic;html=1;rounded=0;exitX=0.5;exitY=1;exitDx=0;exitDy=0;entryX=0.5;entryY=0;entryDx=0;entryDy=0;" edge="1" parent="1" source="6mtiyW2INxsurelcDL0--1" target="6mtiyW2INxsurelcDL0--2">
          <mxGeometry width="50" height="50" relative="1" as="geometry">
            <mxPoint x="460" y="250" as="sourcePoint" />
            <mxPoint x="510" y="200" as="targetPoint" />
          </mxGeometry>
        </mxCell>
        <mxCell id="6mtiyW2INxsurelcDL0--7" value="" style="endArrow=classic;html=1;rounded=0;exitX=0.5;exitY=1;exitDx=0;exitDy=0;entryX=0.5;entryY=0;entryDx=0;entryDy=0;" edge="1" parent="1" source="6mtiyW2INxsurelcDL0--2" target="6mtiyW2INxsurelcDL0--3">
          <mxGeometry width="50" height="50" relative="1" as="geometry">
            <mxPoint x="460" y="330" as="sourcePoint" />
            <mxPoint x="510" y="280" as="targetPoint" />
          </mxGeometry>
        </mxCell>
        <mxCell id="6mtiyW2INxsurelcDL0--8" value="" style="endArrow=classic;html=1;rounded=0;exitX=0.5;exitY=1;exitDx=0;exitDy=0;entryX=0.5;entryY=0;entryDx=0;entryDy=0;" edge="1" parent="1" source="6mtiyW2INxsurelcDL0--3" target="6mtiyW2INxsurelcDL0--4">
          <mxGeometry width="50" height="50" relative="1" as="geometry">
            <mxPoint x="460" y="410" as="sourcePoint" />
            <mxPoint x="510" y="360" as="targetPoint" />
          </mxGeometry>
        </mxCell>
        <mxCell id="6mtiyW2INxsurelcDL0--9" value="" style="endArrow=classic;html=1;rounded=0;exitX=0.5;exitY=1;exitDx=0;exitDy=0;entryX=0.5;entryY=0;entryDx=0;entryDy=0;" edge="1" parent="1" source="6mtiyW2INxsurelcDL0--4" target="6mtiyW2INxsurelcDL0--5">
          <mxGeometry width="50" height="50" relative="1" as="geometry">
            <mxPoint x="460" y="410" as="sourcePoint" />
            <mxPoint x="510" y="360" as="targetPoint" />
          </mxGeometry>
        </mxCell>
        <mxCell id="6mtiyW2INxsurelcDL0--10" value="" style="endArrow=classic;html=1;rounded=0;exitX=1;exitY=0.5;exitDx=0;exitDy=0;" edge="1" parent="1" source="6mtiyW2INxsurelcDL0--5">
          <mxGeometry width="50" height="50" relative="1" as="geometry">
            <mxPoint x="460" y="410" as="sourcePoint" />
            <mxPoint x="460" y="220" as="targetPoint" />
            <Array as="points">
              <mxPoint x="640" y="510" />
              <mxPoint x="640" y="220" />
            </Array>
          </mxGeometry>
        </mxCell>
        <mxCell id="6mtiyW2INxsurelcDL0--11" value="Нет" style="text;html=1;strokeColor=none;fillColor=none;align=center;verticalAlign=middle;whiteSpace=wrap;rounded=0;" vertex="1" parent="1">
          <mxGeometry x="550" y="480" width="60" height="30" as="geometry" />
        </mxCell>
        <mxCell id="6mtiyW2INxsurelcDL0--12" value="Поиск пользователя с указанным в форме email в БД" style="rounded=0;whiteSpace=wrap;html=1;" vertex="1" parent="1">
          <mxGeometry x="400" y="600" width="120" height="60" as="geometry" />
        </mxCell>
        <mxCell id="6mtiyW2INxsurelcDL0--13" value="Пользователь&lt;br&gt;найден ?" style="rhombus;whiteSpace=wrap;html=1;" vertex="1" parent="1">
          <mxGeometry x="400" y="710" width="120" height="80" as="geometry" />
        </mxCell>
        <mxCell id="6mtiyW2INxsurelcDL0--14" value="" style="endArrow=classic;html=1;rounded=0;exitX=0.5;exitY=1;exitDx=0;exitDy=0;entryX=0.5;entryY=0;entryDx=0;entryDy=0;" edge="1" parent="1" source="6mtiyW2INxsurelcDL0--5" target="6mtiyW2INxsurelcDL0--12">
          <mxGeometry width="50" height="50" relative="1" as="geometry">
            <mxPoint x="460" y="650" as="sourcePoint" />
            <mxPoint x="510" y="600" as="targetPoint" />
          </mxGeometry>
        </mxCell>
        <mxCell id="6mtiyW2INxsurelcDL0--15" value="" style="endArrow=classic;html=1;rounded=0;exitX=0.5;exitY=1;exitDx=0;exitDy=0;entryX=0.5;entryY=0;entryDx=0;entryDy=0;" edge="1" parent="1" source="6mtiyW2INxsurelcDL0--12" target="6mtiyW2INxsurelcDL0--13">
          <mxGeometry width="50" height="50" relative="1" as="geometry">
            <mxPoint x="460" y="650" as="sourcePoint" />
            <mxPoint x="510" y="600" as="targetPoint" />
          </mxGeometry>
        </mxCell>
        <mxCell id="6mtiyW2INxsurelcDL0--16" value="Переадресация по HTTP-GET запросу на страницу регистрации" style="rounded=0;whiteSpace=wrap;html=1;" vertex="1" parent="1">
          <mxGeometry x="600" y="800" width="120" height="60" as="geometry" />
        </mxCell>
        <mxCell id="6mtiyW2INxsurelcDL0--18" value="Проверка совпадения пароля в БД и указанного пароля в форме" style="rounded=0;whiteSpace=wrap;html=1;" vertex="1" parent="1">
          <mxGeometry x="200" y="800" width="120" height="60" as="geometry" />
        </mxCell>
        <mxCell id="6mtiyW2INxsurelcDL0--19" value="" style="endArrow=classic;html=1;rounded=0;exitX=1;exitY=0.5;exitDx=0;exitDy=0;entryX=0.5;entryY=0;entryDx=0;entryDy=0;" edge="1" parent="1" source="6mtiyW2INxsurelcDL0--13" target="6mtiyW2INxsurelcDL0--16">
          <mxGeometry width="50" height="50" relative="1" as="geometry">
            <mxPoint x="460" y="730" as="sourcePoint" />
            <mxPoint x="510" y="680" as="targetPoint" />
            <Array as="points">
              <mxPoint x="660" y="750" />
            </Array>
          </mxGeometry>
        </mxCell>
        <mxCell id="6mtiyW2INxsurelcDL0--20" value="" style="endArrow=classic;html=1;rounded=0;exitX=0;exitY=0.5;exitDx=0;exitDy=0;entryX=0.5;entryY=0;entryDx=0;entryDy=0;" edge="1" parent="1" source="6mtiyW2INxsurelcDL0--13" target="6mtiyW2INxsurelcDL0--18">
          <mxGeometry width="50" height="50" relative="1" as="geometry">
            <mxPoint x="460" y="730" as="sourcePoint" />
            <mxPoint x="510" y="680" as="targetPoint" />
            <Array as="points">
              <mxPoint x="260" y="750" />
            </Array>
          </mxGeometry>
        </mxCell>
        <mxCell id="6mtiyW2INxsurelcDL0--21" value="Да" style="text;html=1;strokeColor=none;fillColor=none;align=center;verticalAlign=middle;whiteSpace=wrap;rounded=0;" vertex="1" parent="1">
          <mxGeometry x="310" y="720" width="60" height="30" as="geometry" />
        </mxCell>
        <mxCell id="6mtiyW2INxsurelcDL0--22" value="Нет" style="text;html=1;strokeColor=none;fillColor=none;align=center;verticalAlign=middle;whiteSpace=wrap;rounded=0;" vertex="1" parent="1">
          <mxGeometry x="570" y="720" width="60" height="30" as="geometry" />
        </mxCell>
        <mxCell id="6mtiyW2INxsurelcDL0--24" value="Пароли&lt;br&gt;совпадают ?" style="rhombus;whiteSpace=wrap;html=1;" vertex="1" parent="1">
          <mxGeometry x="200" y="910" width="120" height="80" as="geometry" />
        </mxCell>
        <mxCell id="6mtiyW2INxsurelcDL0--25" value="" style="endArrow=classic;html=1;rounded=0;exitX=0.5;exitY=1;exitDx=0;exitDy=0;entryX=0.5;entryY=0;entryDx=0;entryDy=0;" edge="1" parent="1" source="6mtiyW2INxsurelcDL0--18" target="6mtiyW2INxsurelcDL0--24">
          <mxGeometry width="50" height="50" relative="1" as="geometry">
            <mxPoint x="460" y="890" as="sourcePoint" />
            <mxPoint x="510" y="840" as="targetPoint" />
          </mxGeometry>
        </mxCell>
        <mxCell id="6mtiyW2INxsurelcDL0--26" value="" style="endArrow=classic;html=1;rounded=0;exitX=0;exitY=0.5;exitDx=0;exitDy=0;" edge="1" parent="1" source="6mtiyW2INxsurelcDL0--24">
          <mxGeometry width="50" height="50" relative="1" as="geometry">
            <mxPoint x="540" y="720" as="sourcePoint" />
            <mxPoint x="460" y="110" as="targetPoint" />
            <Array as="points">
              <mxPoint x="120" y="950" />
              <mxPoint x="120" y="110" />
            </Array>
          </mxGeometry>
        </mxCell>
        <mxCell id="6mtiyW2INxsurelcDL0--27" value="Нет" style="text;html=1;strokeColor=none;fillColor=none;align=center;verticalAlign=middle;whiteSpace=wrap;rounded=0;" vertex="1" parent="1">
          <mxGeometry x="130" y="920" width="60" height="30" as="geometry" />
        </mxCell>
        <mxCell id="6mtiyW2INxsurelcDL0--28" value="Авторизация пользователя в сессии Spring-приложения" style="rounded=0;whiteSpace=wrap;html=1;" vertex="1" parent="1">
          <mxGeometry x="400" y="1000" width="120" height="60" as="geometry" />
        </mxCell>
        <mxCell id="6mtiyW2INxsurelcDL0--29" value="Переадресация по HTTP-GET запросу в ЛК авт-го поль-ля" style="rounded=0;whiteSpace=wrap;html=1;" vertex="1" parent="1">
          <mxGeometry x="400" y="1120" width="120" height="60" as="geometry" />
        </mxCell>
        <mxCell id="6mtiyW2INxsurelcDL0--30" value="" style="endArrow=classic;html=1;rounded=0;exitX=1;exitY=0.5;exitDx=0;exitDy=0;entryX=0.5;entryY=0;entryDx=0;entryDy=0;" edge="1" parent="1" source="6mtiyW2INxsurelcDL0--24" target="6mtiyW2INxsurelcDL0--28">
          <mxGeometry width="50" height="50" relative="1" as="geometry">
            <mxPoint x="550" y="1020" as="sourcePoint" />
            <mxPoint x="600" y="970" as="targetPoint" />
            <Array as="points">
              <mxPoint x="460" y="950" />
            </Array>
          </mxGeometry>
        </mxCell>
        <mxCell id="6mtiyW2INxsurelcDL0--31" value="" style="endArrow=classic;html=1;rounded=0;exitX=0.5;exitY=1;exitDx=0;exitDy=0;entryX=0.5;entryY=0;entryDx=0;entryDy=0;" edge="1" parent="1" source="6mtiyW2INxsurelcDL0--28" target="6mtiyW2INxsurelcDL0--29">
          <mxGeometry width="50" height="50" relative="1" as="geometry">
            <mxPoint x="550" y="1100" as="sourcePoint" />
            <mxPoint x="600" y="1050" as="targetPoint" />
          </mxGeometry>
        </mxCell>
        <mxCell id="6mtiyW2INxsurelcDL0--32" value="Конец" style="rounded=1;whiteSpace=wrap;html=1;" vertex="1" parent="1">
          <mxGeometry x="400" y="1260" width="120" height="60" as="geometry" />
        </mxCell>
        <mxCell id="6mtiyW2INxsurelcDL0--33" value="" style="endArrow=classic;html=1;rounded=0;exitX=0.5;exitY=1;exitDx=0;exitDy=0;entryX=0.5;entryY=0;entryDx=0;entryDy=0;" edge="1" parent="1" source="6mtiyW2INxsurelcDL0--29" target="6mtiyW2INxsurelcDL0--32">
          <mxGeometry width="50" height="50" relative="1" as="geometry">
            <mxPoint x="550" y="1190" as="sourcePoint" />
            <mxPoint x="600" y="1140" as="targetPoint" />
          </mxGeometry>
        </mxCell>
        <mxCell id="6mtiyW2INxsurelcDL0--34" value="Да" style="text;html=1;strokeColor=none;fillColor=none;align=center;verticalAlign=middle;whiteSpace=wrap;rounded=0;" vertex="1" parent="1">
          <mxGeometry x="360" y="920" width="60" height="30" as="geometry" />
        </mxCell>
        <mxCell id="6mtiyW2INxsurelcDL0--35" value="" style="endArrow=classic;html=1;rounded=0;exitX=0.5;exitY=1;exitDx=0;exitDy=0;" edge="1" parent="1" source="6mtiyW2INxsurelcDL0--16">
          <mxGeometry width="50" height="50" relative="1" as="geometry">
            <mxPoint x="530" y="1100" as="sourcePoint" />
            <mxPoint x="460" y="1220" as="targetPoint" />
            <Array as="points">
              <mxPoint x="660" y="1220" />
            </Array>
          </mxGeometry>
        </mxCell>
      </root>
    </mxGraphModel>
  </diagram>
</mxfile>
